<svg xmlns="http://www.w3.org/2000/svg" width="13.188" height="10.72" viewBox="0 0 13.188 10.72">
  <defs>
    <style>
      .cls-1 {
        fill: #00acee;
        fill-rule: evenodd;
      }
    </style>
  </defs>
  <path id="_" data-name="" class="cls-1" d="M349.607,5277.55a5.454,5.454,0,0,1-1.559.42,2.7,2.7,0,0,0,1.19-1.49,5.382,5.382,0,0,1-1.717.65,2.711,2.711,0,0,0-4.683,1.85,3.034,3.034,0,0,0,.067.62,7.671,7.671,0,0,1-5.579-2.83,2.673,2.673,0,0,0-.369,1.37,2.714,2.714,0,0,0,1.207,2.25,2.785,2.785,0,0,1-1.224-.34v0.03a2.714,2.714,0,0,0,2.17,2.66,3.328,3.328,0,0,1-.712.09,4.262,4.262,0,0,1-.511-0.04,2.7,2.7,0,0,0,2.53,1.87,5.415,5.415,0,0,1-3.359,1.16,4.708,4.708,0,0,1-.654-0.04,7.7,7.7,0,0,0,11.854-6.48c0-.12,0-0.23-0.008-0.35A5.857,5.857,0,0,0,349.607,5277.55Z" transform="translate(-336.406 -5276.28)"/>
</svg>
